<svg width="17" height="17" viewBox="0 0 17 17" fill="none" xmlns="http://www.w3.org/2000/svg">
<path fill-rule="evenodd" clip-rule="evenodd" d="M13.6695 3.53435C14.1375 3.53435 14.5169 3.91346 14.5169 4.38112V12.1126C14.5169 12.5802 14.1375 12.9593 13.6695 12.9593H2.83739C2.36937 12.9593 1.98997 12.5802 1.98997 12.1126V4.38112C1.98997 3.91346 2.36937 3.53435 2.83739 3.53435H13.6695ZM15.4012 4.38112C15.4012 3.42547 14.6259 2.65076 13.6695 2.65076H2.83739C1.88101 2.65076 1.10572 3.42547 1.10572 4.38112V12.1126C1.10572 13.0682 1.88101 13.8429 2.83739 13.8429H13.6695C14.6259 13.8429 15.4012 13.0682 15.4012 12.1126V4.38112Z" fill="white"/>
<path fill-rule="evenodd" clip-rule="evenodd" d="M13.2446 4.8831C13.0947 4.6905 12.8169 4.65581 12.6242 4.80561L8.25328 8.20265L3.88238 4.80561C3.68963 4.65581 3.41185 4.6905 3.26194 4.8831C3.11203 5.0757 3.14675 5.35327 3.3395 5.50307L7.98184 9.11107C8.1415 9.23516 8.36506 9.23516 8.52472 9.11107L13.1671 5.50307C13.3598 5.35327 13.3945 5.0757 13.2446 4.8831Z" fill="white"/>
</svg>
