<svg width="8" height="11" viewBox="0 0 8 11" fill="none" xmlns="http://www.w3.org/2000/svg">
<g clip-path="url(#clip0_0_166)">
<path d="M1.83333 11C2.84533 11 3.66667 10.1787 3.66667 9.16671V7.33337H1.83333C0.821333 7.33337 0 8.15471 0 9.16671C0 10.1787 0.821333 11 1.83333 11Z" fill="#0ACF83"/>
<path d="M0 5.49996C0 4.48796 0.821333 3.66663 1.83333 3.66663H3.66667V7.33329H1.83333C0.821333 7.33329 0 6.51196 0 5.49996Z" fill="#A259FF"/>
<path d="M0 1.83333C0 0.821333 0.821333 0 1.83333 0H3.66667V3.66667H1.83333C0.821333 3.66667 0 2.84533 0 1.83333Z" fill="#F24E1E"/>
<path d="M3.66669 0H5.50002C6.51202 0 7.33335 0.821333 7.33335 1.83333C7.33335 2.84533 6.51202 3.66667 5.50002 3.66667H3.66669V0Z" fill="#FF7262"/>
<path d="M7.33335 5.49996C7.33335 6.51196 6.51202 7.33329 5.50002 7.33329C4.48802 7.33329 3.66669 6.51196 3.66669 5.49996C3.66669 4.48796 4.48802 3.66663 5.50002 3.66663C6.51202 3.66663 7.33335 4.48796 7.33335 5.49996Z" fill="#1ABCFE"/>
</g>
<defs>
<clipPath id="clip0_0_166">
<rect width="7.33333" height="11" fill="white"/>
</clipPath>
</defs>
</svg>
