<svg width="16" height="16" viewBox="0 0 16 16" fill="none" xmlns="http://www.w3.org/2000/svg">
<path d="M8.06642 0.740601C7.05621 0.740601 6.0559 0.939575 5.12259 1.32616C4.18929 1.71275 3.34127 2.27938 2.62694 2.9937C1.18431 4.43634 0.37384 6.39298 0.37384 8.43318C0.37384 11.8333 2.58161 14.718 5.63556 15.7411C6.02019 15.8027 6.14327 15.5642 6.14327 15.3565V14.0564C4.01243 14.518 3.55857 13.0256 3.55857 13.0256C3.20471 12.1333 2.70469 11.8948 2.70469 11.8948C2.00467 11.4179 2.75854 11.4333 2.75854 11.4333C3.5278 11.4871 3.9355 12.2256 3.9355 12.2256C4.60476 13.3949 5.73557 13.0487 6.17404 12.8641C6.24328 12.3641 6.44328 12.0256 6.65867 11.8333C4.95092 11.641 3.15855 10.9794 3.15855 8.04855C3.15855 7.19467 3.45087 6.51003 3.95089 5.96386C3.87396 5.77154 3.60472 4.97152 4.02781 3.93302C4.02781 3.93302 4.67399 3.72532 6.14327 4.71766C6.75099 4.54843 7.41255 4.46381 8.06642 4.46381C8.72028 4.46381 9.38185 4.54843 9.98956 4.71766C11.4588 3.72532 12.105 3.93302 12.105 3.93302C12.5281 4.97152 12.2589 5.77154 12.1819 5.96386C12.682 6.51003 12.9743 7.19467 12.9743 8.04855C12.9743 10.9871 11.1742 11.6333 9.45877 11.8256C9.73571 12.0641 9.98956 12.5333 9.98956 13.2487V15.3565C9.98956 15.5642 10.1126 15.8104 10.505 15.7411C13.5589 14.7103 15.759 11.8333 15.759 8.43318C15.759 7.42297 15.56 6.42266 15.1734 5.48935C14.7868 4.55605 14.2202 3.70803 13.5059 2.9937C12.7916 2.27938 11.9435 1.71275 11.0102 1.32616C10.0769 0.939575 9.07662 0.740601 8.06642 0.740601Z" fill="white"/>
</svg>
