<svg width="15" height="15" viewBox="0 0 15 15" fill="none" xmlns="http://www.w3.org/2000/svg">
<path d="M7.30714 10.216C8.09458 10.216 8.84978 9.90315 9.40658 9.34634C9.96339 8.78953 10.2762 8.03434 10.2762 7.2469C10.2762 6.45945 9.96339 5.70426 9.40658 5.14745C8.84978 4.59064 8.09458 4.27783 7.30714 4.27783C6.51969 4.27783 5.7645 4.59064 5.20769 5.14745C4.65088 5.70426 4.33807 6.45945 4.33807 7.2469C4.33807 8.03434 4.65088 8.78953 5.20769 9.34634C5.7645 9.90315 6.51969 10.216 7.30714 10.216Z" stroke="white" stroke-width="1.1134" stroke-linecap="round" stroke-linejoin="round"/>
<path d="M0.62677 10.2159V4.27774C0.62677 3.29343 1.01778 2.34944 1.71379 1.65343C2.4098 0.95742 3.35379 0.566406 4.3381 0.566406H10.2762C11.2605 0.566406 12.2045 0.95742 12.9005 1.65343C13.5965 2.34944 13.9876 3.29343 13.9876 4.27774V10.2159C13.9876 11.2002 13.5965 12.1442 12.9005 12.8402C12.2045 13.5362 11.2605 13.9272 10.2762 13.9272H4.3381C3.35379 13.9272 2.4098 13.5362 1.71379 12.8402C1.01778 12.1442 0.62677 11.2002 0.62677 10.2159Z" stroke="white" stroke-width="1.1134"/>
<path d="M11.3896 3.17355L11.3987 3.16357" stroke="white" stroke-width="1.1134" stroke-linecap="round" stroke-linejoin="round"/>
</svg>
