<svg width="16" height="16" viewBox="0 0 16 16" fill="none" xmlns="http://www.w3.org/2000/svg">
<path d="M13.8112 0.959106C14.2407 0.959106 14.6526 1.12973 14.9564 1.43344C15.2601 1.73716 15.4307 2.14908 15.4307 2.5786V13.915C15.4307 14.3445 15.2601 14.7565 14.9564 15.0602C14.6526 15.3639 14.2407 15.5345 13.8112 15.5345H2.47478C2.04526 15.5345 1.63334 15.3639 1.32962 15.0602C1.02591 14.7565 0.855286 14.3445 0.855286 13.915V2.5786C0.855286 2.14908 1.02591 1.73716 1.32962 1.43344C1.63334 1.12973 2.04526 0.959106 2.47478 0.959106H13.8112ZM13.4063 13.5102V9.2185C13.4063 8.51839 13.1282 7.84696 12.6332 7.35191C12.1381 6.85685 11.4667 6.57873 10.7666 6.57873C10.0783 6.57873 9.27663 6.9998 8.88795 7.6314V6.73259H6.62877V13.5102H8.88795V9.51811C8.88795 8.8946 9.39 8.38447 10.0135 8.38447C10.3142 8.38447 10.6025 8.5039 10.8151 8.7165C11.0277 8.9291 11.1471 9.21745 11.1471 9.51811V13.5102H13.4063ZM3.9971 5.46129C4.35789 5.46129 4.7039 5.31796 4.95902 5.06284C5.21414 4.80773 5.35747 4.46171 5.35747 4.10092C5.35747 3.34785 4.75016 2.73245 3.9971 2.73245C3.63415 2.73245 3.28608 2.87662 3.02944 3.13326C2.7728 3.3899 2.62863 3.73798 2.62863 4.10092C2.62863 4.85398 3.24403 5.46129 3.9971 5.46129ZM5.12264 13.5102V6.73259H2.87965V13.5102H5.12264Z" fill="white"/>
</svg>
