<svg width="643" height="352" viewBox="0 0 643 352" fill="none" xmlns="http://www.w3.org/2000/svg">
<rect width="643" height="352" rx="32" fill="#D9D9D9"/>
<path d="M268.659 71.8182L280.591 112.841H281.045L292.977 71.8182H310.818L291.614 130H270.023L250.818 71.8182H268.659ZM314.822 130V71.8182H339.936C344.254 71.8182 348.032 72.6042 351.271 74.1761C354.509 75.7481 357.028 78.0114 358.828 80.9659C360.627 83.9205 361.526 87.4621 361.526 91.5909C361.526 95.7576 360.598 99.2708 358.742 102.131C356.905 104.991 354.32 107.15 350.987 108.608C347.672 110.066 343.799 110.795 339.367 110.795H324.367V98.5227H336.186C338.042 98.5227 339.623 98.2955 340.93 97.8409C342.256 97.3674 343.269 96.6193 343.97 95.5966C344.689 94.5739 345.049 93.2386 345.049 91.5909C345.049 89.9242 344.689 88.5701 343.97 87.5284C343.269 86.4678 342.256 85.6913 340.93 85.1989C339.623 84.6875 338.042 84.4318 336.186 84.4318H330.617V130H314.822ZM348.913 103.295L363.458 130H346.299L332.095 103.295H348.913Z" fill="#ECECEC"/>
<path d="M269.682 141.818L279.227 158.75H279.682L289.341 141.818H306.955L289.568 170.909L307.636 200H289.568L279.682 182.727H279.227L269.341 200H251.386L269.227 170.909L251.955 141.818H269.682ZM327.961 141.818V200H312.166V141.818H327.961ZM349.756 141.818L361.688 182.841H362.142L374.074 141.818H391.915L372.711 200H351.12L331.915 141.818H349.756Z" fill="black"/>
<path d="M275.25 248.409H287.523L291.955 253.977L299.455 262.5L309.227 274.318H295.25L288.318 266.25L283.659 259.545L275.25 248.409ZM309.114 240.909C309.114 247.386 307.854 252.85 305.335 257.301C302.816 261.733 299.417 265.095 295.136 267.386C290.856 269.659 286.083 270.795 280.818 270.795C275.515 270.795 270.723 269.65 266.443 267.358C262.182 265.047 258.792 261.676 256.273 257.244C253.773 252.794 252.523 247.348 252.523 240.909C252.523 234.432 253.773 228.977 256.273 224.545C258.792 220.095 262.182 216.733 266.443 214.46C270.723 212.169 275.515 211.023 280.818 211.023C286.083 211.023 290.856 212.169 295.136 214.46C299.417 216.733 302.816 220.095 305.335 224.545C307.854 228.977 309.114 234.432 309.114 240.909ZM292.864 240.909C292.864 237.424 292.4 234.489 291.472 232.102C290.562 229.697 289.208 227.879 287.409 226.648C285.629 225.398 283.432 224.773 280.818 224.773C278.205 224.773 275.998 225.398 274.199 226.648C272.419 227.879 271.064 229.697 270.136 232.102C269.227 234.489 268.773 237.424 268.773 240.909C268.773 244.394 269.227 247.339 270.136 249.744C271.064 252.131 272.419 253.949 274.199 255.199C275.998 256.43 278.205 257.045 280.818 257.045C283.432 257.045 285.629 256.43 287.409 255.199C289.208 253.949 290.562 252.131 291.472 249.744C292.4 247.339 292.864 244.394 292.864 240.909ZM314.9 270V211.818H340.014C344.332 211.818 348.11 212.604 351.349 214.176C354.588 215.748 357.106 218.011 358.906 220.966C360.705 223.92 361.605 227.462 361.605 231.591C361.605 235.758 360.677 239.271 358.82 242.131C356.983 244.991 354.398 247.15 351.065 248.608C347.75 250.066 343.877 250.795 339.445 250.795H324.445V238.523H336.264C338.12 238.523 339.701 238.295 341.008 237.841C342.334 237.367 343.347 236.619 344.048 235.597C344.767 234.574 345.127 233.239 345.127 231.591C345.127 229.924 344.767 228.57 344.048 227.528C343.347 226.468 342.334 225.691 341.008 225.199C339.701 224.687 338.12 224.432 336.264 224.432H330.695V270H314.9ZM348.991 243.295L363.536 270H346.377L332.173 243.295H348.991Z" fill="black"/>
<rect x="282.5" y="72" width="33.234" height="33.234" transform="rotate(45 282.5 72)" fill="#D9D9D9"/>
<path d="M282.75 95.5L282.75 72.6036L305.646 95.5L282.75 118.396V95.5Z" fill="black" stroke="#060606" stroke-width="0.5"/>
</svg>
